<svg width="128" height="128" viewBox="0 0 128 128" fill="none" xmlns="http://www.w3.org/2000/svg">
<path d="M63.9104 94.2977C57.3824 86.1057 53.5424 78.9248 52.2624 72.7808C50.9824 67.7888 51.4944 63.8208 53.6704 60.8768C55.9744 57.4208 59.4304 55.7568 63.9104 55.7568C68.3904 55.7568 71.8464 57.4208 74.1504 60.8768C76.3264 63.8208 76.8384 67.7888 75.5584 72.7808C74.1504 79.0528 70.3104 86.2209 63.9104 94.2977V94.2977ZM110.272 99.8017C109.376 105.818 105.28 110.81 99.648 113.242C88.768 117.978 78.0032 110.426 68.7872 100.186C84.032 81.1008 86.848 66.2528 80.3072 56.64C76.4672 51.136 70.9632 48.448 63.9104 48.448C49.7024 48.448 41.8816 60.48 44.9536 74.4448C46.7456 81.9968 51.4816 90.5857 59.0336 100.186C54.2976 105.434 49.8176 109.146 45.8496 111.45C42.7776 113.114 39.8336 114.138 37.0176 114.394C24.0896 116.314 13.9648 103.77 18.5728 90.8288C19.2128 89.1648 20.4928 86.0928 22.6688 81.3568L22.7968 81.1008C29.8368 65.728 38.4256 48.32 48.2816 28.9792L48.5376 28.3392L51.3536 22.9632C53.5296 18.9952 54.4256 17.2032 57.8816 15.0272C59.5456 14.0032 61.5936 13.4912 63.8976 13.4912C68.5056 13.4912 72.0896 16.1792 73.6256 18.3552C74.3936 19.5072 75.2896 21.0432 76.4416 22.9632L79.1296 28.2112L79.5136 28.9792C89.3696 48.32 97.9584 65.728 104.998 81.1008L105.126 81.2288L107.686 87.1168L109.222 90.8288C110.4 93.7856 110.656 96.7297 110.272 99.8017ZM116.16 88.2688C115.264 85.4528 113.728 82.1248 111.808 78.1568V78.0288C102.72 58.688 94.2592 41.28 86.1952 25.6512L85.6832 24.8832C79.9232 13.1072 75.8272 6.05444 63.9104 6.05444C52.1344 6.05444 47.1296 14.2464 42.0096 24.8832L41.6256 25.6512C33.5616 41.28 25.1008 58.688 16.0128 78.0288V78.2848L13.3248 84.1728C12.3008 86.6048 11.7888 87.8848 11.6608 88.2688C5.13275 106.202 18.5728 121.946 34.8416 121.946C34.9696 121.946 35.4816 121.946 36.1216 121.818H37.9136C46.3616 120.794 55.0784 115.418 63.9104 105.805C72.7424 115.405 81.4592 120.794 89.9072 121.818H91.6992C92.3392 121.946 92.8512 121.946 92.9792 121.946C109.248 121.958 122.688 106.202 116.16 88.2688Z" fill="white"/>
</svg>
