<svg width="50" height="54" viewBox="0 0 50 54" fill="none" xmlns="http://www.w3.org/2000/svg">
<path d="M24.9595 40.7286C22.0015 37.0166 20.2615 33.7628 19.6815 30.9788C19.1015 28.7168 19.3335 26.9188 20.3195 25.5848C21.3635 24.0188 22.9295 23.2648 24.9595 23.2648C26.9895 23.2648 28.5555 24.0188 29.5995 25.5848C30.5855 26.9188 30.8175 28.7168 30.2375 30.9788C29.5995 33.8208 27.8595 37.0688 24.9595 40.7286V40.7286ZM45.9671 43.2226C45.5611 45.9486 43.7051 48.2106 41.1531 49.3126C36.2231 51.4586 31.3453 48.0366 27.1693 43.3966C34.0771 34.7488 35.3531 28.0208 32.3893 23.665C30.6493 21.171 28.1553 19.953 24.9595 19.953C18.5215 19.953 14.9777 25.405 16.3697 31.7328C17.1817 35.1548 19.3277 39.0466 22.7497 43.3966C20.6037 45.7746 18.5737 47.4566 16.7757 48.5006C15.3837 49.2546 14.0497 49.7186 12.7737 49.8346C6.91568 50.7046 2.32788 45.0206 4.41588 39.1568C4.70588 38.4028 5.28588 37.0108 6.27188 34.8648L6.32988 34.7488C9.51988 27.783 13.4117 19.895 17.8777 11.1312L17.9937 10.8412L19.2697 8.40521C20.2557 6.60721 20.6617 5.79521 22.2277 4.80921C22.9817 4.34521 23.9097 4.11321 24.9537 4.11321C27.0417 4.11321 28.6657 5.33121 29.3617 6.31721C29.7097 6.83921 30.1157 7.53521 30.6377 8.40521L31.8557 10.7832L32.0297 11.1312C36.4957 19.895 40.3875 27.783 43.5775 34.7488L43.6355 34.8068L44.7955 37.4748L45.4915 39.1568C46.0251 40.4966 46.1411 41.8306 45.9671 43.2226ZM48.6351 37.9968C48.2291 36.7208 47.5331 35.2128 46.6631 33.4148V33.3568C42.5451 24.593 38.7113 16.705 35.0573 9.62321L34.8253 9.27521C32.2153 3.93921 30.3593 0.743408 24.9595 0.743408C19.6235 0.743408 17.3557 4.45541 15.0357 9.27521L14.8617 9.62321C11.2077 16.705 7.37388 24.593 3.25588 33.3568V33.4728L2.03788 36.1408C1.57388 37.2428 1.34188 37.8228 1.28388 37.9968C-1.67412 46.1226 4.41588 53.2566 11.7877 53.2566C11.8457 53.2566 12.0777 53.2566 12.3677 53.1986H13.1797C17.0077 52.7346 20.9575 50.2986 24.9595 45.9428C28.9615 50.2928 32.9113 52.7346 36.7393 53.1986H37.5513C37.8413 53.2566 38.0733 53.2566 38.1313 53.2566C45.5031 53.2624 51.5931 46.1226 48.6351 37.9968Z" fill="white"/>
</svg>
